<?xml version="1.0" encoding="UTF-8" standalone="no"?>
<!-- Created with Inkscape (http://www.inkscape.org/) -->

<svg
   width="122.31411mm"
   height="35.5467mm"
   viewBox="0 0 122.31411 35.546699"
   version="1.1"
   id="svg1"
   inkscape:version="1.3 (0e150ed6c4, 2023-07-21)"
   sodipodi:docname="floop.svg"
   xml:space="preserve"
   xmlns:inkscape="http://www.inkscape.org/namespaces/inkscape"
   xmlns:sodipodi="http://sodipodi.sourceforge.net/DTD/sodipodi-0.dtd"
   xmlns="http://www.w3.org/2000/svg"
   xmlns:svg="http://www.w3.org/2000/svg"><sodipodi:namedview
     id="namedview1"
     pagecolor="#505050"
     bordercolor="#ffffff"
     borderopacity="1"
     inkscape:showpageshadow="0"
     inkscape:pageopacity="0"
     inkscape:pagecheckerboard="1"
     inkscape:deskcolor="#d1d1d1"
     inkscape:document-units="mm"
     inkscape:zoom="10.24"
     inkscape:cx="7603.6621"
     inkscape:cy="1465.1367"
     inkscape:window-width="1920"
     inkscape:window-height="991"
     inkscape:window-x="-9"
     inkscape:window-y="-9"
     inkscape:window-maximized="1"
     inkscape:current-layer="g319" /><defs
     id="defs1" /><g
     inkscape:label="Layer 1"
     inkscape:groupmode="layer"
     id="layer1"
     transform="translate(-1151.8327,-235.58694)"><g
       id="g393"
       transform="translate(355.46847,-335.5903)"><path
         d="m 906.49919,571.17805 c -0.47543,0 -0.94723,0.024 -1.41542,0.073 -0.46819,0.049 -0.93276,0.1215 -1.39371,0.2186 -0.46096,0.097 -0.91829,0.2186 -1.37201,0.3644 -0.45372,0.1457 -0.90382,0.3157 -1.35031,0.51 -0.44648,0.1943 -0.87436,0.4062 -1.28364,0.6356 -0.40928,0.2295 -0.79995,0.4765 -1.17202,0.7411 -0.37207,0.2645 -0.72554,0.5467 -1.0604,0.8464 -0.33486,0.2997 -0.65113,0.617 -0.94878,0.9519 -0.26458,0.3018 -0.51005,0.6098 -0.73639,0.924 -0.22634,0.3142 -0.43357,0.6346 -0.62167,0.9612 -0.1881,0.3266 -0.35708,0.6594 -0.50694,0.9983 -0.14987,0.339 -0.28061,0.6842 -0.39223,1.0356 -0.10748,0.3473 -0.20154,0.7194 -0.28215,1.1163 -0.0806,0.3968 -0.1478,0.8185 -0.20154,1.265 -0.0537,0.4465 -0.0941,0.9178 -0.12092,1.4139 -0.0269,0.4961 -0.0403,1.017 -0.0403,1.5627 v 21.0839 h 10.0707 v -22.1258 c 0,-0.2439 0.0121,-0.4728 0.0367,-0.6862 0.0246,-0.2135 0.0615,-0.4114 0.11059,-0.5943 0.0491,-0.183 0.11033,-0.3509 0.18397,-0.5034 0.0736,-0.1524 0.15968,-0.2893 0.25786,-0.4113 0.0982,-0.122 0.20852,-0.2289 0.33125,-0.3204 0.12273,-0.091 0.25786,-0.1674 0.40514,-0.2284 0.14728,-0.061 0.3067,-0.107 0.47853,-0.1375 0.17182,-0.03 0.35605,-0.045 0.55242,-0.045 0.1943,0 0.37672,0.011 0.54673,0.033 0.17002,0.022 0.32763,0.056 0.47336,0.1003 0.14573,0.044 0.27905,0.1 0.40049,0.1664 0.12144,0.067 0.231,0.1447 0.32815,0.2336 0.0971,0.089 0.1819,0.1886 0.25476,0.2997 0.0729,0.1111 0.13384,0.2336 0.18242,0.3669 0.0486,0.1333 0.0853,0.2775 0.10955,0.4331 0.0243,0.1555 0.0362,0.3224 0.0362,0.5002 0,0.1943 -0.0158,0.3762 -0.0475,0.5462 -0.0318,0.17 -0.0796,0.3281 -0.14315,0.4739 -0.0636,0.1457 -0.14288,0.279 -0.23823,0.4005 -0.0953,0.1214 -0.2067,0.231 -0.33383,0.3281 -0.12712,0.097 -0.27001,0.1819 -0.42891,0.2548 -0.15891,0.073 -0.33383,0.1338 -0.52452,0.1824 -0.19068,0.049 -0.39713,0.085 -0.6196,0.109 -0.22246,0.024 -0.46095,0.037 -0.7152,0.037 v 8.8801 l 1.53789,0.025 c 0.48369,0 0.95188,-0.015 1.40508,-0.044 0.45321,-0.03 0.89142,-0.074 1.31414,-0.1338 0.42271,-0.059 0.82992,-0.1336 1.22214,-0.2228 0.39223,-0.089 0.76947,-0.1932 1.1312,-0.3121 0.36174,-0.1188 0.70849,-0.2524 1.03973,-0.401 0.33125,-0.1486 0.64699,-0.3121 0.94775,-0.4904 0.30075,-0.1783 0.58601,-0.3713 0.85628,-0.5793 0.27026,-0.208 0.52555,-0.431 0.76532,-0.6687 0.26252,-0.2584 0.50876,-0.5266 0.73846,-0.8046 0.2297,-0.278 0.44287,-0.5659 0.63975,-0.8635 0.19689,-0.2977 0.3775,-0.6051 0.54157,-0.9224 0.16408,-0.3173 0.31161,-0.6444 0.44287,-0.9814 0.13126,-0.3369 0.24624,-0.6837 0.34468,-1.0402 0.0985,-0.3566 0.18035,-0.723 0.24598,-1.0992 0.0656,-0.3762 0.11498,-0.7622 0.1478,-1.158 0.0328,-0.3959 0.0491,-0.8015 0.0491,-1.217 0,-0.4279 -0.0181,-0.8473 -0.0548,-1.2578 -0.0367,-0.4106 -0.092,-0.8124 -0.16536,-1.2056 -0.0734,-0.3933 -0.16485,-0.778 -0.27492,-1.154 -0.11007,-0.3759 -0.23875,-0.7431 -0.38551,-1.1017 -0.14676,-0.3587 -0.31212,-0.7088 -0.49557,-1.0501 -0.18346,-0.3413 -0.38499,-0.6738 -0.60514,-0.9979 -0.22014,-0.324 -0.45888,-0.6394 -0.71571,-0.9461 -0.25684,-0.3067 -0.53175,-0.6047 -0.82528,-0.8941 -0.29145,-0.2893 -0.59144,-0.5606 -0.9002,-0.8139 -0.30877,-0.2532 -0.62632,-0.4883 -0.9524,-0.7053 -0.32607,-0.2171 -0.66068,-0.416 -1.00407,-0.5969 -0.34339,-0.1809 -0.69557,-0.3436 -1.05627,-0.4883 -0.3607,-0.1447 -0.72993,-0.2713 -1.10794,-0.3799 -0.37801,-0.1085 -0.76481,-0.1989 -1.16014,-0.2713 -0.39532,-0.072 -0.79917,-0.1266 -1.21181,-0.1627 -0.41263,-0.036 -0.83406,-0.054 -1.264,-0.054 z"
         style="font-size:50.8px;font-family:'Bauhaus 93';-inkscape-font-specification:'Bauhaus 93, Normal';fill:#e6e6e6;stroke-width:0.836;stroke-linecap:round;paint-order:markers stroke fill"
         id="path131" /><path
         d="m 871.77262,581.14955 c -0.25838,0 -0.51185,0.012 -0.76067,0.036 -0.24882,0.024 -0.493,0.059 -0.73226,0.107 -0.23926,0.047 -0.47361,0.107 -0.70331,0.1783 -0.2297,0.071 -0.45476,0.1545 -0.6749,0.2496 -0.22014,0.095 -0.43537,0.202 -0.64595,0.3209 -0.21058,0.1188 -0.41652,0.2496 -0.61754,0.3922 -0.20102,0.1426 -0.39713,0.2971 -0.58859,0.4635 -0.19146,0.1664 -0.37827,0.3447 -0.56017,0.5349 -0.18191,0.1902 -0.35244,0.385 -0.5116,0.585 -0.15916,0.2 -0.30696,0.4051 -0.44338,0.6149 -0.13643,0.2098 -0.26149,0.4248 -0.37518,0.6444 -0.11368,0.2197 -0.216,0.4439 -0.30695,0.6734 -0.0909,0.2294 -0.17054,0.464 -0.23875,0.7033 -0.0682,0.2393 -0.12506,0.4832 -0.17053,0.7322 -0.0455,0.2491 -0.0796,0.5029 -0.10232,0.7618 -0.0227,0.2589 -0.0341,0.5229 -0.0341,0.7916 0,0.2688 0.0114,0.5323 0.0341,0.7912 0.0227,0.2589 0.0568,0.5132 0.10232,0.7622 0.0455,0.2491 0.10232,0.493 0.17053,0.7323 0.0682,0.2392 0.1478,0.4739 0.23875,0.7033 0.091,0.2294 0.19327,0.4537 0.30695,0.6733 0.11369,0.2197 0.23875,0.4346 0.37518,0.6445 0.13642,0.2098 0.28422,0.4144 0.44338,0.6144 0.15916,0.2 0.32969,0.3953 0.5116,0.5855 0.18396,0.1901 0.37233,0.3684 0.56534,0.5348 0.19301,0.1664 0.39067,0.3209 0.59272,0.4636 0.20206,0.1426 0.40851,0.2733 0.61961,0.3922 0.21109,0.1188 0.42684,0.2258 0.64698,0.3209 0.22015,0.095 0.44468,0.1783 0.67386,0.2496 0.22919,0.071 0.46303,0.1307 0.70125,0.1783 0.23823,0.048 0.48085,0.083 0.72812,0.107 0.24728,0.024 0.4992,0.036 0.75551,0.036 0.26045,0 0.51599,-0.012 0.76637,-0.035 0.25037,-0.024 0.49557,-0.059 0.73587,-0.106 0.24029,-0.047 0.47568,-0.1057 0.7059,-0.1762 0.23022,-0.07 0.45527,-0.153 0.67541,-0.247 0.22014,-0.094 0.43537,-0.1997 0.64544,-0.3173 0.21006,-0.1176 0.41496,-0.247 0.61495,-0.3881 0.19998,-0.1411 0.39506,-0.2938 0.58497,-0.4584 0.18992,-0.1646 0.37466,-0.341 0.55449,-0.5291 0.1819,-0.1902 0.35244,-0.3853 0.5116,-0.5855 0.15916,-0.2003 0.30696,-0.4057 0.44338,-0.616 0.13643,-0.2103 0.26149,-0.4256 0.37517,-0.646 0.11369,-0.2204 0.21601,-0.4459 0.30696,-0.6764 0.091,-0.2305 0.17053,-0.4659 0.23875,-0.7064 0.0682,-0.2406 0.12505,-0.4863 0.17053,-0.7369 0.0455,-0.2507 0.0796,-0.5062 0.10232,-0.7669 0.0227,-0.2607 0.0341,-0.5266 0.0341,-0.7974 0,-0.2708 -0.0114,-0.5364 -0.0341,-0.7968 -0.0227,-0.2605 -0.0568,-0.5158 -0.10232,-0.7659 -0.0455,-0.2501 -0.10232,-0.495 -0.17053,-0.7348 -0.0682,-0.2398 -0.1478,-0.4744 -0.23875,-0.7038 -0.0909,-0.2295 -0.19327,-0.4538 -0.30696,-0.6729 -0.11368,-0.2191 -0.23874,-0.433 -0.37517,-0.6418 -0.13642,-0.2088 -0.28422,-0.4124 -0.44338,-0.6108 -0.15916,-0.1984 -0.3297,-0.3917 -0.5116,-0.5798 -0.17983,-0.1902 -0.36457,-0.3685 -0.55449,-0.5349 -0.18991,-0.1664 -0.38499,-0.3209 -0.58497,-0.4635 -0.19999,-0.1426 -0.40489,-0.2734 -0.61495,-0.3922 -0.21007,-0.1189 -0.4253,-0.2259 -0.64544,-0.3209 -0.22014,-0.095 -0.44519,-0.1783 -0.67541,-0.2496 -0.23022,-0.071 -0.46561,-0.1308 -0.7059,-0.1783 -0.2403,-0.048 -0.4855,-0.083 -0.73587,-0.107 -0.25038,-0.024 -0.50592,-0.036 -0.76637,-0.036 z"
         style="font-size:50.8px;font-family:'Bauhaus 93';-inkscape-font-specification:'Bauhaus 93, Normal';fill:#ff00cc;stroke-width:0.836;stroke-linecap:round;paint-order:markers stroke fill"
         id="path132" /><path
         d="m 872.07028,571.17805 c -0.63252,0 -1.25264,0.027 -1.86087,0.081 -0.60823,0.054 -1.20458,0.1344 -1.78852,0.2419 -0.58394,0.1075 -1.15548,0.2418 -1.71514,0.4031 -0.55966,0.1612 -1.10743,0.3493 -1.64279,0.5643 -0.53537,0.215 -1.05834,0.4568 -1.56942,0.7255 -0.51108,0.2687 -1.01027,0.5643 -1.49706,0.8868 -0.48679,0.3224 -0.9617,0.6718 -1.42421,1.048 -0.4625,0.3762 -0.9126,0.7793 -1.35082,1.2092 -0.43615,0.43 -0.84517,0.8718 -1.2268,1.3255 -0.38163,0.4537 -0.73587,0.9193 -1.06298,1.3968 -0.32711,0.4775 -0.62709,0.9669 -0.89969,1.4681 -0.27259,0.5013 -0.51779,1.0145 -0.73587,1.5395 -0.21807,0.525 -0.40902,1.0619 -0.57257,1.6107 -0.16356,0.5488 -0.29973,1.1095 -0.40876,1.6821 -0.10904,0.5726 -0.19095,1.1571 -0.24547,1.7534 -0.0545,0.5963 -0.0817,1.2046 -0.0817,1.8247 0,0.6139 0.0269,1.2167 0.0811,1.8081 0.0543,0.5915 0.1359,1.1716 0.24443,1.7405 0.10852,0.569 0.24391,1.1268 0.40669,1.6733 0.16278,0.5465 0.35295,1.0816 0.56999,1.6056 0.21704,0.524 0.46095,1.0369 0.73225,1.5384 0.27131,0.5015 0.57,0.9917 0.89556,1.4707 0.32556,0.479 0.67851,0.947 1.05833,1.4035 0.37982,0.4566 0.78652,0.9018 1.2206,1.3359 0.43408,0.434 0.87927,0.8413 1.33583,1.2211 0.45656,0.3798 0.9245,0.7322 1.40354,1.0578 0.47904,0.3256 0.96919,0.6237 1.47071,0.895 0.50152,0.2713 1.01441,0.5158 1.5384,0.7328 0.524,0.217 1.05911,0.4067 1.60559,0.5695 0.54648,0.1628 1.10433,0.2987 1.67328,0.4072 0.56896,0.1085 1.14903,0.1896 1.74047,0.2439 0.59143,0.054 1.19424,0.082 1.80815,0.082 0.61805,0 1.22422,-0.027 1.81901,-0.081 0.5948,-0.054 1.17823,-0.1349 1.74977,-0.2429 0.57154,-0.108 1.1312,-0.2431 1.67948,-0.4051 0.54829,-0.162 1.08521,-0.3509 1.61024,-0.5669 0.52503,-0.216 1.0387,-0.4592 1.54047,-0.7292 0.50178,-0.27 0.99168,-0.5669 1.4702,-0.8909 0.47852,-0.324 0.94568,-0.6751 1.40095,-1.0531 0.45527,-0.378 0.89865,-0.7829 1.33067,-1.2149 0.43201,-0.4321 0.8369,-0.8754 1.21491,-1.3307 0.37801,-0.4553 0.72915,-0.9224 1.05316,-1.401 0.32401,-0.4785 0.6209,-0.9684 0.89091,-1.4702 0.27001,-0.5017 0.51314,-1.0154 0.72915,-1.5404 0.21601,-0.5251 0.40489,-1.0615 0.56689,-1.6097 0.16201,-0.5483 0.29714,-1.1085 0.40514,-1.68 0.10801,-0.5716 0.18888,-1.155 0.24288,-1.7498 0.054,-0.5948 0.0811,-1.201 0.0811,-1.819 0,-0.6077 -0.0269,-1.2049 -0.0806,-1.7911 -0.0537,-0.5863 -0.13436,-1.1617 -0.24185,-1.7265 -0.10748,-0.5649 -0.24184,-1.1191 -0.40307,-1.6625 -0.16123,-0.5433 -0.34933,-1.0759 -0.56431,-1.5978 -0.21497,-0.5219 -0.45682,-1.0333 -0.72554,-1.5338 -0.26871,-0.5004 -0.5643,-0.9901 -0.88676,-1.4691 -0.32246,-0.4791 -0.6718,-0.9475 -1.048,-1.4051 -0.37621,-0.4576 -0.77928,-0.9043 -1.20923,-1.3405 -0.42788,-0.4361 -0.86636,-0.8452 -1.31568,-1.2268 -0.44933,-0.3816 -0.90951,-0.7359 -1.38028,-1.063 -0.47077,-0.3271 -0.95214,-0.6271 -1.44436,-0.8997 -0.49221,-0.2726 -0.99528,-0.5178 -1.50895,-0.7358 -0.51366,-0.2181 -1.03792,-0.409 -1.57303,-0.5726 -0.53511,-0.1636 -1.08107,-0.2997 -1.63762,-0.4088 -0.55656,-0.109 -1.12371,-0.1909 -1.70171,-0.2454 -0.578,-0.054 -1.16685,-0.082 -1.7663,-0.082 z m -0.29766,9.9715 c 0.26045,0 0.51599,0.012 0.76637,0.036 0.25037,0.024 0.49557,0.059 0.73587,0.107 0.24029,0.047 0.47568,0.107 0.7059,0.1783 0.23022,0.071 0.45527,0.1545 0.67541,0.2496 0.22014,0.095 0.43537,0.202 0.64544,0.3209 0.21006,0.1188 0.41496,0.2496 0.61495,0.3922 0.19998,0.1426 0.39506,0.2971 0.58497,0.4635 0.18992,0.1664 0.37466,0.3447 0.55449,0.5349 0.1819,0.1881 0.35244,0.3814 0.5116,0.5798 0.15916,0.1984 0.30696,0.4021 0.44338,0.6108 0.13643,0.2088 0.26149,0.4227 0.37517,0.6418 0.11369,0.2192 0.21601,0.4434 0.30696,0.6729 0.091,0.2294 0.17053,0.464 0.23875,0.7038 0.0682,0.2398 0.12505,0.4847 0.17053,0.7348 0.0455,0.2502 0.0796,0.5054 0.10232,0.7659 0.0227,0.2604 0.0341,0.5261 0.0341,0.7968 0,0.2708 -0.0114,0.5367 -0.0341,0.7974 -0.0227,0.2607 -0.0568,0.5163 -0.10232,0.7669 -0.0455,0.2506 -0.10232,0.4963 -0.17053,0.7369 -0.0682,0.2405 -0.1478,0.4759 -0.23875,0.7064 -0.0909,0.2305 -0.19327,0.4561 -0.30696,0.6765 -0.11368,0.2204 -0.23874,0.4356 -0.37517,0.6459 -0.13642,0.2103 -0.28422,0.4157 -0.44338,0.616 -0.15916,0.2002 -0.3297,0.3953 -0.5116,0.5855 -0.17983,0.1881 -0.36457,0.3646 -0.55449,0.5292 -0.18991,0.1645 -0.38499,0.3172 -0.58497,0.4583 -0.19999,0.1411 -0.40489,0.2705 -0.61495,0.3881 -0.21007,0.1176 -0.4253,0.2233 -0.64544,0.3173 -0.22014,0.094 -0.44519,0.1765 -0.67541,0.247 -0.23022,0.071 -0.46561,0.1292 -0.7059,0.1762 -0.2403,0.047 -0.4855,0.082 -0.73587,0.106 -0.25038,0.024 -0.50592,0.035 -0.76637,0.035 -0.25631,0 -0.50823,-0.012 -0.75551,-0.036 -0.24727,-0.024 -0.48989,-0.059 -0.72812,-0.107 -0.23822,-0.047 -0.47206,-0.107 -0.70125,-0.1783 -0.22918,-0.071 -0.45371,-0.1545 -0.67386,-0.2496 -0.22014,-0.095 -0.43589,-0.202 -0.64698,-0.3209 -0.2111,-0.1188 -0.41755,-0.2496 -0.61961,-0.3922 -0.20205,-0.1426 -0.39971,-0.2972 -0.59272,-0.4635 -0.19301,-0.1664 -0.38138,-0.3447 -0.56534,-0.5349 -0.18191,-0.1902 -0.35244,-0.3855 -0.5116,-0.5855 -0.15916,-0.2 -0.30696,-0.4046 -0.44338,-0.6144 -0.13643,-0.2098 -0.26149,-0.4248 -0.37518,-0.6444 -0.11368,-0.2197 -0.216,-0.4439 -0.30695,-0.6734 -0.0909,-0.2294 -0.17054,-0.464 -0.23875,-0.7033 -0.0682,-0.2393 -0.12506,-0.4832 -0.17053,-0.7322 -0.0455,-0.2491 -0.0796,-0.5034 -0.10232,-0.7623 -0.0227,-0.2589 -0.0341,-0.5224 -0.0341,-0.7911 0,-0.2688 0.0114,-0.5328 0.0341,-0.7917 0.0227,-0.2589 0.0568,-0.5127 0.10232,-0.7617 0.0455,-0.2491 0.10232,-0.493 0.17053,-0.7323 0.0682,-0.2393 0.1478,-0.4739 0.23875,-0.7033 0.091,-0.2294 0.19327,-0.4537 0.30695,-0.6733 0.11369,-0.2197 0.23875,-0.4346 0.37518,-0.6445 0.13642,-0.2098 0.28422,-0.4149 0.44338,-0.6149 0.15916,-0.2 0.32969,-0.3948 0.5116,-0.585 0.1819,-0.1902 0.36871,-0.3684 0.56017,-0.5348 0.19146,-0.1664 0.38757,-0.3209 0.58859,-0.4636 0.20102,-0.1426 0.40696,-0.2733 0.61754,-0.3922 0.21058,-0.1189 0.42581,-0.2258 0.64595,-0.3209 0.22014,-0.095 0.4452,-0.1783 0.6749,-0.2496 0.2297,-0.071 0.46405,-0.1307 0.70331,-0.1783 0.23926,-0.048 0.48344,-0.083 0.73226,-0.107 0.24882,-0.024 0.50229,-0.036 0.76067,-0.036 z"
         style="font-size:50.8px;font-family:'Bauhaus 93';-inkscape-font-specification:'Bauhaus 93, Normal';fill:#e6e6e6;stroke-width:0.836;stroke-linecap:round;paint-order:markers stroke fill"
         id="path133" /><path
         d="m 838.2863,572.02145 v 21.7289 c 0,0.4754 0.016,0.9379 0.0481,1.3875 0.032,0.4496 0.0801,0.8863 0.14417,1.31 0.0641,0.4238 0.14418,0.8346 0.2403,1.2325 0.0961,0.3979 0.20825,0.7829 0.33641,1.155 0.12816,0.372 0.27234,0.7312 0.43253,1.0774 0.1602,0.3463 0.33642,0.6796 0.52865,1 0.19224,0.3204 0.4005,0.6278 0.62477,0.9224 0.22428,0.2945 0.46457,0.5762 0.72089,0.8449 0.25631,0.2666 0.52555,0.5165 0.80718,0.7498 0.28164,0.2333 0.57568,0.4501 0.88264,0.6501 0.30695,0.2 0.62683,0.3832 0.95911,0.5498 0.33228,0.1667 0.67696,0.3168 1.03456,0.4501 0.3576,0.1334 0.72813,0.2499 1.11105,0.3499 0.38292,0.1 0.77824,0.1835 1.18649,0.2501 0.40824,0.067 0.82941,0.1165 1.26297,0.1499 0.43356,0.033 0.87953,0.05 1.33842,0.05 h 2.67891 v -9.8227 h -0.5209 c -0.37207,0 -0.71365,-0.016 -1.02475,-0.048 -0.31109,-0.032 -0.59169,-0.08 -0.84181,-0.1442 -0.25011,-0.064 -0.46973,-0.1441 -0.65887,-0.2403 -0.18914,-0.096 -0.34778,-0.2082 -0.47594,-0.3364 -0.12402,-0.1323 -0.23254,-0.2971 -0.32556,-0.4945 -0.093,-0.1974 -0.17053,-0.4274 -0.23255,-0.6899 -0.062,-0.2625 -0.10852,-0.5576 -0.13952,-0.8852 -0.031,-0.3276 -0.0465,-0.6878 -0.0465,-1.0806 v -20.1166 z"
         style="font-size:50.8px;font-family:'Bauhaus 93';-inkscape-font-specification:'Bauhaus 93, Normal';fill:#e6e6e6;stroke-width:0.836;stroke-linecap:round;paint-order:markers stroke fill"
         id="path134" /><path
         d="m 826.70251,571.17805 c -0.46302,0 -0.91623,0.02 -1.35961,0.061 -0.44338,0.041 -0.87695,0.1013 -1.3007,0.1825 -0.42374,0.081 -0.83767,0.1826 -1.24178,0.3043 -0.40411,0.1217 -0.7984,0.2636 -1.18287,0.4258 -0.38448,0.1623 -0.75913,0.345 -1.12397,0.5478 -0.36483,0.2028 -0.71985,0.4258 -1.06505,0.6692 -0.3452,0.2434 -0.68058,0.5072 -1.00614,0.7912 -0.32556,0.284 -0.6413,0.5881 -0.94723,0.9126 -0.30385,0.3225 -0.58885,0.6555 -0.85472,0.9994 -0.26588,0.3439 -0.51264,0.6987 -0.74053,1.064 -0.22789,0.3654 -0.43692,0.7413 -0.62683,1.1281 -0.18991,0.3868 -0.3607,0.7845 -0.51263,1.1927 -0.15193,0.4083 -0.285,0.8271 -0.39895,1.2568 -0.11394,0.4297 -0.20877,0.8702 -0.28473,1.3214 -0.076,0.4511 -0.13307,0.9128 -0.17105,1.3854 -0.038,0.4726 -0.0568,0.956 -0.0568,1.4501 v 21.0095 h 10.07071 v -8.8304 h 3.34863 v -0.1 h 6.35879 v -8.9959 h -6.85488 v 0.017 h -2.85254 v -4.192 c 0,-0.2687 0.0124,-0.5203 0.0367,-0.7555 0.0243,-0.2351 0.0605,-0.4537 0.10904,-0.6552 0.0486,-0.2016 0.10955,-0.3861 0.18241,-0.554 0.0729,-0.168 0.15762,-0.3194 0.25477,-0.4537 0.0971,-0.1344 0.2067,-0.2517 0.32814,-0.3525 0.12144,-0.1007 0.25477,-0.185 0.4005,-0.2521 0.14572,-0.067 0.30385,-0.1173 0.47387,-0.1509 0.17001,-0.034 0.35191,-0.051 0.54622,-0.051 0.14676,0 0.2881,0.01 0.42374,0.031 0.13565,0.02 0.26562,0.05 0.39016,0.09 0.12454,0.04 0.24366,0.091 0.35709,0.1514 0.11343,0.061 0.22117,0.1307 0.32349,0.2113 0.10232,0.081 0.19921,0.1716 0.29042,0.2724 0.0912,0.1007 0.17674,0.2113 0.25683,0.3323 0.1602,0.2418 0.29818,0.5239 0.41393,0.8464 l 8.25996,-6.0275 c -0.34313,-0.4403 -0.69685,-0.8529 -1.06091,-1.2382 -0.36406,-0.3852 -0.73846,-0.7431 -1.12345,-1.0733 -0.38499,-0.3302 -0.78057,-0.6328 -1.18649,-0.908 -0.40592,-0.2751 -0.82217,-0.5229 -1.24902,-0.7431 -0.42685,-0.2201 -0.86429,-0.4126 -1.31206,-0.5777 -0.44778,-0.1651 -0.90589,-0.3028 -1.3746,-0.4129 -0.4687,-0.1101 -0.948,-0.1925 -1.43764,-0.2475 -0.48963,-0.055 -0.9896,-0.083 -1.50016,-0.083 z"
         style="font-size:50.8px;font-family:'Bauhaus 93';-inkscape-font-specification:'Bauhaus 93, Normal';fill:#ff00cc;stroke-width:0.836;stroke-linecap:round;paint-order:markers stroke fill"
         id="path135" /><path
         d="m 808.79146,572.02145 c -0.28319,0 -0.56483,0.011 -0.84543,0.032 -0.2806,0.021 -0.56017,0.053 -0.83819,0.095 -0.55604,0.085 -1.10691,0.2119 -1.65261,0.3814 -0.54571,0.1695 -1.08624,0.3814 -1.62161,0.6356 -0.53537,0.2542 -1.06557,0.5509 -1.5906,0.8899 -0.5209,0.3348 -1.00873,0.6945 -1.46348,1.079 -0.45475,0.3844 -0.87643,0.7937 -1.26504,1.2278 -0.3886,0.4341 -0.74414,0.893 -1.0666,1.3767 -0.32246,0.4837 -0.61185,0.9922 -0.86816,1.5255 -0.20258,0.4175 -0.37982,0.8567 -0.53175,1.3177 -0.15193,0.461 -0.27854,0.9436 -0.37983,1.448 -0.10128,0.5043 -0.17725,1.0304 -0.22789,1.5782 -0.0506,0.5477 -0.076,1.1172 -0.076,1.7084 v 21.0096 h 9.27695 v -9.525 h 4.14238 v -9.7235 h -4.14238 v -0.8433 c 0,-0.3597 0.0196,-0.6987 0.0589,-1.017 0.0393,-0.3184 0.0982,-0.616 0.17674,-0.893 0.0785,-0.277 0.17673,-0.5333 0.29455,-0.7689 0.11782,-0.2357 0.25528,-0.4507 0.41238,-0.645 0.16123,-0.1943 0.339,-0.3643 0.5333,-0.51 0.1943,-0.1457 0.40514,-0.2672 0.63252,-0.3643 0.22737,-0.097 0.47129,-0.17 0.73174,-0.2186 0.26045,-0.049 0.53743,-0.073 0.83095,-0.073 0.0992,0 0.25632,0.01 0.47129,0.025 v -9.7235 z"
         style="font-size:50.8px;font-family:'Bauhaus 93';-inkscape-font-specification:'Bauhaus 93, Normal';fill:#e6e6e6;stroke-width:0.836;stroke-linecap:round;paint-order:markers stroke fill"
         id="path136" /><path
         d="m 826.70251,571.17805 c -0.46302,0 -0.91623,0.02 -1.35961,0.061 -0.44338,0.041 -0.87695,0.1013 -1.3007,0.1825 -0.42374,0.081 -0.83767,0.1826 -1.24178,0.3043 -0.40411,0.1217 -0.7984,0.2636 -1.18287,0.4258 -0.38448,0.1623 -0.75913,0.345 -1.12397,0.5478 -0.36483,0.2028 -0.71985,0.4258 -1.06505,0.6692 -0.3452,0.2434 -0.68058,0.5072 -1.00614,0.7912 -0.32556,0.284 -0.6413,0.5881 -0.94723,0.9126 -0.30385,0.3225 -0.58885,0.6555 -0.85472,0.9994 -0.26588,0.3439 -0.51264,0.6987 -0.74053,1.064 -0.22789,0.3654 -0.43692,0.7413 -0.62683,1.1281 -0.18991,0.3868 -0.3607,0.7845 -0.51263,1.1927 -0.15193,0.4083 -0.285,0.8271 -0.39895,1.2568 -0.11394,0.4297 -0.20877,0.8702 -0.28473,1.3214 -0.076,0.4511 -0.13307,0.9128 -0.17105,1.3854 -0.038,0.4726 -0.0568,0.956 -0.0568,1.4501 v 21.0095 h 10.07071 v -8.8304 h 3.34863 v -0.1 h 6.35879 v -8.9959 h -6.85488 v 0.017 h -2.85254 v -4.192 c 0,-0.2687 0.0124,-0.5203 0.0367,-0.7555 0.0243,-0.2351 0.0605,-0.4537 0.10904,-0.6552 0.0486,-0.2016 0.10955,-0.3861 0.18241,-0.554 0.0729,-0.168 0.15762,-0.3194 0.25477,-0.4537 0.0971,-0.1344 0.2067,-0.2517 0.32814,-0.3525 0.12144,-0.1007 0.25477,-0.185 0.4005,-0.2521 0.14572,-0.067 0.30385,-0.1173 0.47387,-0.1509 0.17001,-0.034 0.35191,-0.051 0.54622,-0.051 0.14676,0 0.2881,0.01 0.42374,0.031 0.13565,0.02 0.26562,0.05 0.39016,0.09 0.12454,0.04 0.24366,0.091 0.35709,0.1514 0.11343,0.061 0.22117,0.1307 0.32349,0.2113 0.10232,0.081 0.19921,0.1716 0.29042,0.2724 0.0912,0.1007 0.17674,0.2113 0.25683,0.3323 0.1602,0.2418 0.29818,0.5239 0.41393,0.8464 l 8.25996,-6.0275 c -0.34313,-0.4403 -0.69685,-0.8529 -1.06091,-1.2382 -0.36406,-0.3852 -0.73846,-0.7431 -1.12345,-1.0733 -0.38499,-0.3302 -0.78057,-0.6328 -1.18649,-0.908 -0.40592,-0.2751 -0.82217,-0.5229 -1.24902,-0.7431 -0.42685,-0.2201 -0.86429,-0.4126 -1.31206,-0.5777 -0.44778,-0.1651 -0.90589,-0.3028 -1.3746,-0.4129 -0.4687,-0.1101 -0.948,-0.1925 -1.43764,-0.2475 -0.48963,-0.055 -0.9896,-0.083 -1.50016,-0.083 z"
         style="font-size:50.8px;font-family:'Bauhaus 93';-inkscape-font-specification:'Bauhaus 93, Normal';fill:#ff00cc;stroke-width:0.836;stroke-linecap:round;paint-order:markers stroke fill"
         id="path156" /></g></g></svg>
